<?xml version="1.0" standalone="no"?>
<!DOCTYPE svg PUBLIC "-//W3C//DTD SVG 20010904//EN"
        "http://www.w3.org/TR/2001/REC-SVG-20010904/DTD/svg10.dtd">
<svg version="1.0" xmlns="http://www.w3.org/2000/svg"
     width="640.000000pt" height="103.000000pt" viewBox="0 0 640.000000 103.000000"
     preserveAspectRatio="xMidYMid meet">

    <g transform="translate(0.000000,103.000000) scale(0.100000,-0.100000)"
       fill="#000000" stroke="none">
        <path d="M0 515 l0 -515 3200 0 3200 0 0 515 0 515 -3200 0 -3200 0 0 -515z
m494 124 c50 -14 118 -82 134 -136 10 -34 17 -42 40 -45 l27 -3 3 -173 2 -172
-115 0 -115 0 0 60 c0 33 4 60 9 60 14 0 33 57 26 80 -16 50 -101 64 -125 20
-15 -28 -12 -76 5 -90 10 -8 15 -31 15 -71 l0 -59 -109 0 -108 0 -6 68 c-9 85
-9 246 -1 266 3 9 17 16 30 16 15 0 27 7 30 18 38 129 141 194 258 161z"/>
        <path d="M394 579 c-37 -11 -94 -71 -94 -99 0 -19 7 -20 140 -20 77 0 140 3
140 6 0 4 -9 23 -21 44 -34 59 -102 88 -165 69z"/>
    </g>
</svg>
